<svg width="218" height="32" viewBox="0 0 218 32" fill="none" xmlns="http://www.w3.org/2000/svg">
<path d="M3.01691 8.8325C3.25957 8.525 3.57914 8.10875 3.83505 7.81125C4.60148 6.99125 4.70093 6.88375 5.39841 6.2775C5.60527 6.1175 5.85058 5.925 6.09058 5.74375C4.32037 7.15625 4.09495 8.72 5.7193 9.68625C5.71665 9.68625 5.71665 9.68625 5.71665 9.68875C7.98809 10.9788 12.9659 10.7 16.8935 9.0475C20.6978 7.4475 22.1021 5.15875 20.2244 3.79875C18.5762 3.5075 16.6111 3.47375 14.5319 3.73625L14.3158 3.4L14.4948 2.8425C15.7174 2.73875 16.8789 2.76375 17.8814 2.925C18.1241 2.96375 18.4436 3.03 18.6823 3.0775C19.1438 3.18375 19.3944 3.2475 19.6954 3.33875C20.003 3.425 20.2656 3.51125 20.723 3.67125C21.1712 3.8375 21.3648 3.9125 21.7242 4.08125C22.1266 4.25433 22.5176 4.4501 22.895 4.6675C25.8865 6.44125 24.0261 9.6775 18.7473 11.895C13.483 14.105 6.7748 14.4525 3.76875 12.7C3.76743 12.6975 3.76345 12.695 3.75549 12.6925H3.7608C2.11921 11.7125 1.94683 10.29 3.01691 8.8325ZM16.7132 21.2325L16.6708 19.24L15.1684 17.665C10.2052 18.725 5.32681 18.4975 2.61381 16.9913C2.60452 16.9812 2.58198 16.9713 2.5727 16.9613C1.03719 16.07 0.657952 14.92 0.773314 13.67C0.413967 15.4987 0.384795 16.1587 0.436509 17.7237C0.500158 18.7037 1.10084 19.6075 2.30882 20.32L2.31811 20.33C5.21012 22.025 11.2355 22.3925 16.7132 21.2325ZM22.9786 23.5138C15.9733 26.1625 7.20575 26.3188 3.39747 23.8675C3.80874 24.815 4.36834 25.6989 5.05763 26.49C8.55297 28.74 16.6005 28.5963 23.0276 26.165C26.7895 24.7437 29.163 22.8525 29.7863 21.08L29.9613 20.5462C30.3763 19.1938 30.4546 18.0675 30.5209 17.065C30.4453 19.2413 27.7256 21.7162 22.9786 23.5138ZM7.51471 28.615C7.73483 28.8125 8.427 29.6138 11.9343 30.4988C12.8824 30.6963 15.2692 31.33 19.6781 30.4088L19.7047 30.03L19.3559 29.515C15.2652 30.4275 10.721 30.1225 7.51471 28.615ZM17.6374 12.8538L21.3622 15.515C21.3622 15.515 22.1591 16.0562 21.4072 16.4362C20.658 16.8125 18.734 17.7337 18.734 17.7337L16.8339 17.065L15.8805 17.465L17.5618 18.8412L17.5751 20.9825L18.563 20.5688L19.218 18.76C19.218 18.76 21.2296 18.03 22.0278 17.755C22.83 17.4862 22.7226 18.4062 22.7226 18.4062L22.3275 22.795L23.6402 22.245L25.8016 16.3237C25.8016 16.3237 26.9473 15.7987 27.7535 15.3375C28.5584 14.8763 28.8342 14.1112 28.8342 14.1112C28.8342 14.1112 28.0492 13.7925 27.1449 14.0487C26.2405 14.3025 25.0617 14.755 25.0617 14.755L18.9462 12.3062L17.6374 12.8538ZM9.75698 4.43375L12.2857 6.3325L12.9765 6.235L11.6001 4.53125C11.6001 4.53125 11.3004 4.17875 11.7036 4.095C12.1093 4.01 13.1356 3.8125 13.1356 3.8125L13.9074 4.39375L14.4272 4.32125L13.8384 3.43875L14.1487 2.46L13.6461 2.52875L13.0508 3.27375C13.0508 3.27375 12.0059 3.36625 11.5948 3.39875C11.1811 3.42875 11.3588 3.01 11.3588 3.01L12.1517 1L11.4569 1.09625L9.62703 3.6075C9.62703 3.6075 9.01707 3.7125 8.57551 3.83125C8.13263 3.94875 7.89925 4.27125 7.89925 4.27125C7.89925 4.27125 8.22412 4.51875 8.68159 4.51C9.14304 4.50125 9.75698 4.43375 9.75698 4.43375ZM22.2546 28.8312L20.6183 28.025L20.2417 28.1488L21.211 28.9662C21.211 28.9662 21.4178 29.1325 21.2004 29.2212C20.9829 29.3088 20.4286 29.5238 20.4286 29.5238L19.9712 29.3313L19.6993 29.4237L20.0799 29.8062L20.0428 30.365L20.3265 30.2725L20.5387 29.8188C20.5387 29.8188 21.1142 29.6575 21.3436 29.6C21.5717 29.5412 21.5199 29.7938 21.5199 29.7938L21.3038 31L21.6817 30.8762L22.423 29.2812C22.423 29.2812 22.7505 29.16 22.9852 29.0487C23.2199 28.9375 23.3127 28.7325 23.3127 28.7325C23.3127 28.7325 23.1045 28.625 22.8473 28.6787C22.5887 28.73 22.2546 28.8312 22.2546 28.8312Z" fill="white"/>
<path d="M47.4857 12.28V31H42.2377V12.28H36.8297L37.3417 8.344H52.6057L52.0937 12.28H47.4857ZM58.5487 17.24C58.8687 16.1093 59.402 15.2133 60.1487 14.552C60.8954 13.8907 61.7594 13.56 62.7407 13.56C63.7434 13.56 64.65 13.7627 65.4607 14.168L64.3407 18.04C63.6794 17.848 63.114 17.752 62.6447 17.752C61.8127 17.752 61.0554 18.0613 60.3727 18.68C59.7114 19.2987 59.3807 20.2053 59.3807 21.4V31H54.4847V18.936L54.1327 14.2L57.8447 13.72L58.4207 17.24H58.5487ZM74.0322 19.352C74.0322 18.648 73.8829 18.136 73.5842 17.816C73.2855 17.4747 72.7095 17.304 71.8562 17.304C71.0029 17.304 69.5949 17.6133 67.6322 18.232L66.2562 15.224C66.9815 14.8187 67.9842 14.4453 69.2642 14.104C70.5655 13.7413 71.8349 13.56 73.0722 13.56C74.3309 13.56 75.3762 13.7093 76.2082 14.008C77.0615 14.3067 77.6695 14.7547 78.0322 15.352C78.4162 15.928 78.6615 16.504 78.7682 17.08C78.8962 17.656 78.9602 18.3813 78.9602 19.256V25.272C78.9602 26.0613 79.0349 26.7013 79.1842 27.192C79.3549 27.6827 79.7069 28.216 80.2402 28.792L77.4562 31.384C76.9655 31.1493 76.4855 30.7973 76.0162 30.328C75.5682 29.8587 75.2375 29.4213 75.0242 29.016H74.8962C73.6589 30.5947 72.0909 31.384 70.1922 31.384C67.1202 31.384 65.5842 29.7947 65.5842 26.616C65.5842 24.9307 66.0642 23.672 67.0242 22.84C68.0055 22.008 69.4135 21.432 71.2482 21.112L74.0322 20.632V19.352ZM70.2242 26.104C70.2242 27.1493 70.7789 27.672 71.8882 27.672C72.7415 27.672 73.4669 27.3733 74.0642 26.776V23.768C72.6989 23.96 71.7175 24.2267 71.1202 24.568C70.5229 24.888 70.2242 25.4 70.2242 26.104ZM90.3024 13.688L94.7824 14.2L90.5584 31H84.8304L80.3824 14.168L85.1184 13.688L87.6464 26.648H87.8384L90.3024 13.688ZM103.526 13.56C105.66 13.56 107.228 14.1467 108.23 15.32C109.062 16.28 109.574 17.88 109.766 20.12C109.83 21.016 109.862 22.136 109.862 23.48L107.59 23.8H100.998C100.998 25.0587 101.233 26.008 101.702 26.648C102.172 27.2667 103.004 27.576 104.198 27.576C105.414 27.576 106.876 27.2667 108.582 26.648L109.574 29.656C107.548 30.808 105.436 31.384 103.238 31.384C98.2675 31.384 95.7822 28.44 95.7822 22.552C95.7822 19.7787 96.4222 17.592 97.7022 15.992C99.0035 14.3707 100.945 13.56 103.526 13.56ZM104.614 18.104C104.401 17.6133 103.921 17.368 103.174 17.368C102.428 17.368 101.894 17.6453 101.574 18.2C101.254 18.7333 101.073 19.544 101.03 20.632H104.934C104.934 19.416 104.828 18.5733 104.614 18.104ZM117.098 25.144C117.098 26.1893 117.162 26.9573 117.29 27.448C117.439 27.9387 117.791 28.5253 118.346 29.208L114.826 31.8C113.802 30.712 113.098 29.7627 112.714 28.952C112.351 28.12 112.17 26.8827 112.17 25.24V7.384L117.098 6.84V25.144ZM127.436 8.344H135.628C138.55 8.344 140.566 9.03733 141.676 10.424C142.636 11.6613 143.116 13.24 143.116 15.16C143.116 17.144 142.529 18.8827 141.356 20.376C140.737 21.1867 139.798 21.8373 138.54 22.328C137.302 22.7973 135.809 23.032 134.06 23.032H132.684V31H127.436V8.344ZM132.684 11.928V19.256H134.412C135.5 19.256 136.278 18.968 136.748 18.392C137.238 17.816 137.484 16.9093 137.484 15.672C137.484 14.4133 137.281 13.4747 136.876 12.856C136.47 12.2373 135.649 11.928 134.412 11.928H132.684ZM152.719 13.56C153.892 13.56 154.916 13.7413 155.791 14.104C156.666 14.4667 157.348 14.936 157.839 15.512C158.351 16.0667 158.756 16.76 159.055 17.592C159.546 18.9573 159.791 20.632 159.791 22.616C159.791 25.6667 158.938 27.9813 157.231 29.56C155.93 30.776 154.138 31.384 151.855 31.384C150.682 31.384 149.658 31.2027 148.783 30.84C147.908 30.4773 147.215 30.0187 146.703 29.464C146.212 28.888 145.807 28.184 145.487 27.352C144.996 26.0293 144.751 24.3547 144.751 22.328C144.751 20.4507 145.124 18.7973 145.871 17.368C147.172 14.8293 149.455 13.56 152.719 13.56ZM154.575 22.552C154.575 20.6107 154.426 19.2667 154.127 18.52C153.828 17.752 153.188 17.368 152.207 17.368C151.247 17.368 150.628 17.7307 150.351 18.456C150.095 19.1813 149.967 20.504 149.967 22.424C149.967 24.344 150.116 25.688 150.415 26.456C150.714 27.2027 151.354 27.576 152.335 27.576C153.316 27.576 153.935 27.224 154.191 26.52C154.447 25.7947 154.575 24.472 154.575 22.552ZM166.361 17.24C166.681 16.1093 167.215 15.2133 167.961 14.552C168.708 13.8907 169.572 13.56 170.553 13.56C171.556 13.56 172.463 13.7627 173.273 14.168L172.153 18.04C171.492 17.848 170.927 17.752 170.457 17.752C169.625 17.752 168.868 18.0613 168.185 18.68C167.524 19.2987 167.193 20.2053 167.193 21.4V31H162.297V18.936L161.945 14.2L165.657 13.72L166.233 17.24H166.361ZM180.181 13.816H184.501L183.925 17.368H180.181V24.696C180.181 25.784 180.33 26.5413 180.629 26.968C180.927 27.3947 181.439 27.608 182.165 27.608C182.463 27.608 183.071 27.5013 183.989 27.288L184.853 30.136C184.447 30.456 183.786 30.744 182.869 31C181.973 31.256 181.151 31.384 180.405 31.384C178.293 31.384 176.906 30.8507 176.245 29.784C175.605 28.696 175.285 26.9253 175.285 24.472V17.368H172.821L173.269 14.168L175.381 13.88L175.573 10.68L180.181 9.304V13.816ZM193.876 19.352C193.876 18.648 193.727 18.136 193.428 17.816C193.129 17.4747 192.553 17.304 191.7 17.304C190.847 17.304 189.439 17.6133 187.476 18.232L186.1 15.224C186.825 14.8187 187.828 14.4453 189.108 14.104C190.409 13.7413 191.679 13.56 192.916 13.56C194.175 13.56 195.22 13.7093 196.052 14.008C196.905 14.3067 197.513 14.7547 197.876 15.352C198.26 15.928 198.505 16.504 198.612 17.08C198.74 17.656 198.804 18.3813 198.804 19.256V25.272C198.804 26.0613 198.879 26.7013 199.028 27.192C199.199 27.6827 199.551 28.216 200.084 28.792L197.3 31.384C196.809 31.1493 196.329 30.7973 195.86 30.328C195.412 29.8587 195.081 29.4213 194.868 29.016H194.74C193.503 30.5947 191.935 31.384 190.036 31.384C186.964 31.384 185.428 29.7947 185.428 26.616C185.428 24.9307 185.908 23.672 186.868 22.84C187.849 22.008 189.257 21.432 191.092 21.112L193.876 20.632V19.352ZM190.068 26.104C190.068 27.1493 190.623 27.672 191.732 27.672C192.585 27.672 193.311 27.3733 193.908 26.776V23.768C192.543 23.96 191.561 24.2267 190.964 24.568C190.367 24.888 190.068 25.4 190.068 26.104ZM206.754 25.144C206.754 26.1893 206.818 26.9573 206.946 27.448C207.096 27.9387 207.448 28.5253 208.002 29.208L204.482 31.8C203.458 30.712 202.754 29.7627 202.37 28.952C202.008 28.12 201.826 26.8827 201.826 25.24V7.384L206.754 6.84V25.144Z" fill="white"/>
</svg>
